<svg width="512" height="512" viewBox="0 0 32 32" xmlns="http://www.w3.org/2000/svg">
  <defs>
    <radialGradient
      id="siftLogoLeaf"
      cx="0"
      cy="0"
      r="1"
      gradientTransform="translate(15.543 -7.075)scale(29.8062)"
      gradientUnits="userSpaceOnUse">
      <stop offset=".508" stop-color="#b7d118" />
      <stop offset=".572" stop-color="#b2d019" />
      <stop offset=".643" stop-color="#a5cd1d" />
      <stop offset=".717" stop-color="#8fc922" />
      <stop offset=".793" stop-color="#70c22a" />
      <stop offset=".871" stop-color="#48ba34" />
      <stop offset=".949" stop-color="#18b040" />
      <stop offset=".981" stop-color="#02ab46" />
    </radialGradient>
  </defs>
  <rect width="32" height="32" rx="7" fill="#16161e" />
  <g transform="translate(4.6 4.6) scale(0.713)">
    <path
      fill="#b0b0af"
      d="M8.185 14.95c-.105-.105-6.498-1.512-6.498-1.512s-.372.597-.265.95c.06.197 1.455 1.82 2.89 3.312c1.133 1.18 2.42 2.38 2.608 3.065c.287 1.055.317 2.747.317 2.747L3.07 26.059s.51 2.595 3.815 2.492c3.087-.095 3.248-3.365 4.228-3.383c.165-.002.392-.06.8.378c1.01 1.085 2.9 3.18 3.532 3.815c.845.845 1.445 1.69 1.762 1.655c.318-.035 2.996-2.43 3.77-3.17c.776-.74 1.48-1.62 1.48-2.36s-1.092-1.302-1.092-1.302l-6.025.704z" />
    <path
      fill="url(#siftLogoLeaf)"
      d="M22.03 6.247c.19-.695-.027-2.402 1.3-3.532c1.328-1.13 3.393-.99 4.635.197s1.442 3.42-.027 4.89c-1.47 1.47-2.148.65-2.968 1.443s-.677 1.443-.17 1.923c.51.48 5.57 5.767 5.427 6.105c-.142.337-3.59 4.24-4.154 4.522c-.566.282-1.556.255-1.753-.678c-.198-.932.142-2.797-1.273-3.28c-1.412-.48-2.035-.084-3.42 1.386s-2.007 3.08-.877 3.9s2.545.48 3.11 1.442s-.282 1.837-1.78 3.223c-1.497 1.384-2.657 2.514-2.855 2.375c-.198-.143-4.495-4.693-4.918-5.173c-.425-.48-1.245-.905-2.034-.17c-.793.735-.933 3.137-4.268 3.137S2.27 24.34 3.457 22.844c1.188-1.498 3.815-1.64 3.873-2.658c.025-.467-1.418-1.727-2.713-3.08c-1.522-1.593-2.937-3.28-2.997-3.478c-.113-.367 3.165-3.59 3.787-4.042c.623-.453 1.328-.17 1.668.197c.34.368.425 1.498.707 2.148c.283.65 1.61 3.478 4.806.255c3.165-3.195.17-4.58-.848-4.863c-1.018-.282-1.75-.375-2.035-1.412c-.225-.82 1.018-1.78 2.318-3.025S14.085.99 14.425.99s4.89 4.89 5.485 5.455s.96.707 1.385.592c.422-.11.65-.477.735-.79" />
  </g>
</svg>
